:SAMPLES-PER-SECOND 30
:FULLY-SPECIFIED
:DEGREES
364
root  -36.747 39.5464 -1.74344 34.6278 83.6747 38.4824
RightUpLeg  -20.3839 2.00868 -7.43291
RightLeg  22.4884 5.87513 2.50913
RightFoot  -3.41946 -0.648716 9.01743
RightToes  -1.16417e-010 0 -3.6325e-017
Spine  5.23011 -1.13055 -9.38252
Spine1  6.40827 -2.11911 1.93095
HEad  -18.0594 4.76413 -2.89281
LeftShoulder1  -0.560361 5.02408 -30.7185
LeftArm  13.5212 -17.1969 -46.2114
LeftForeArm  15.964 -22.799 -4.24726
LeftHand  -0.0191212 8.1547 0.993911
RightShoulder  -1.02177 -6.40227 28.7141
RightArm  13.6724 -14.3209 42.7687
RightForeArm  19.3502 11.3749 5.81424
RightHand  0.0193433 2.52802 -0.0204022
LeftUpLeg  4.47853 5.96379 -7.61534
LeftLeg  12.6188 7.61463 -0.082173
LeftFoot  -13.3381 0.170959 5.24026
LeftToes  3.13772e-010 -3.14513e-011 3.96022e-013
365
root  -35.7707 39.4467 -1.81771 38.3688 83.497 41.947
RightUpLeg  -20.6552 0.0222818 -6.87531
RightLeg  12.8082 7.62013 1.48291
RightFoot  -3.86175 -0.683265 10.0266
RightToes  -1.16417e-010 0 -3.6325e-017
Spine  5.19556 -1.14969 -9.26711
Spine1  6.57808 -2.03314 2.00149
HEad  -18.797 4.289 -2.791
LeftShoulder1  -0.609561 5.16494 -30.5383
LeftArm  14.3685 -18.7196 -46.6887
LeftForeArm  15.888 -24.2087 -4.31996
LeftHand  -0.0103161 7.8365 1.39865
RightShoulder  -0.988119 -6.28552 28.96
RightArm  12.4312 -13.8232 43.5388
RightForeArm  20.1295 10.7967 5.66012
RightHand  -0.0168821 -0.00648315 -0.419804
LeftUpLeg  6.2217 5.69636 -8.29841
LeftLeg  11.7462 7.81366 -0.0812035
LeftFoot  -14.3518 0.217416 4.96669
LeftToes  3.13772e-010 -3.14513e-011 3.96022e-013
366
root  -34.704 39.343 -1.89678 42.4085 83.7931 46.133
RightUpLeg  -19.9614 -5.03267 -4.81806
RightLeg  3.66157 11.1286 -0.0734941
RightFoot  -4.21981 -0.707602 10.8664
RightToes  -1.16417e-010 0 -3.6325e-017
Spine  5.10284 -1.17453 -8.08223
Spine1  7.16987 -1.84339 1.42975
HEad  -19.3766 3.63259 -2.62642
LeftShoulder1  -0.489043 4.8485 -30.1908
LeftArm  16.6999 -20.1741 -47.0829
LeftForeArm  15.1109 -24.5876 -4.46565
LeftHand  -0.0264014 6.89478 0.795375
RightShoulder  -0.920359 -6.11542 28.66
RightArm  11.654 -14.219 44.7016
RightForeArm  19.7239 11.5246 5.32891
RightHand  0.0435813 2.61447 0.470029
LeftUpLeg  8.69461 5.85571 -8.37809
LeftLeg  10.7334 7.12314 -0.437479
LeftFoot  -15.262 0.267071 5.12374
LeftToes  3.13772e-010 -3.14513e-011 3.96022e-013
367
root  -33.5956 39.142 -1.93393 49.3566 83.9287 52.8359
RightUpLeg  -20.1432 -6.29785 -4.55747
RightLeg  -2.60983 10.4152 -0.339938
RightFoot  -4.98376 -0.66906 11.4476
RightToes  -1.16417e-010 0 -3.6325e-017
Spine  4.78842 -1.16918 -7.18486
Spine1  7.58076 -1.5608 0.676583
HEad  -20.0126 2.88963 -2.48534
LeftShoulder1  -0.379341 4.55976 -29.7757
LeftArm  19.5303 -21.7998 -47.5743
LeftForeArm  14.9563 -23.9921 -4.32889
LeftHand  -0.0375562 6.90926 0.091196
RightShoulder  -0.997052 -6.30138 29.0857
RightArm  13.0768 -13.6454 45.0379
RightForeArm  18.6747 12.2941 5.55212
RightHand  0.017578 3.54852 -0.0301636
LeftUpLeg  10.5045 5.89708 -8.62778
LeftLeg  10.4418 6.23989 -0.726255
LeftFoot  -16.7249 0.328131 4.84436
LeftToes  3.13772e-010 -3.14513e-011 3.96022e-013
368
root  -32.4054 38.8561 -1.92203 56.5584 83.925 59.8872
RightUpLeg  -21.1247 -6.49828 -4.56551
RightLeg  -3.62449 8.55763 0.0548811
RightFoot  -6.42578 -0.55912 11.9856
RightToes  -1.16417e-010 0 -3.6325e-017
Spine  4.56611 -1.27783 -7.18466
Spine1  7.91365 -1.68992 0.914577
HEad  -20.4382 2.69924 -2.88234
LeftShoulder1  -0.457421 4.76792 -30.0338
LeftArm  21.6285 -22.9786 -47.6688
LeftForeArm  15.813 -22.8762 -4.31847
LeftHand  -0.0565286 7.54414 -0.793784
RightShoulder  -0.910305 -6.10755 28.3889
RightArm  14.327 -12.9821 46.2829
RightForeArm  19.7319 13.175 5.5981
RightHand  0.0671073 3.12861 0.712407
LeftUpLeg  12.3103 6.0253 -8.83591
LeftLeg  10.6775 5.31286 -0.882049
LeftFoot  -18.5057 0.382068 4.3294
LeftToes  3.13772e-010 -3.14513e-011 3.96022e-013
369
root  -31.1526 38.5947 -1.87116 61.6404 84.1631 64.7465
RightUpLeg  -22.6593 -6.16203 -4.09047
RightLeg  -0.114573 5.26593 0.619487
RightFoot  -5.17401 -0.593972 10.3376
RightToes  -1.16417e-010 0 -3.6325e-017
Spine  4.47983 -1.29077 -6.69939
Spine1  7.98966 -1.76342 1.13253
HEad  -20.8298 2.61225 -3.191
LeftShoulder1  -0.408496 4.63831 -29.857
LeftArm  20.9238 -23.4077 -48.0434
LeftForeArm  18.0416 -20.1527 -5.4456
LeftHand  -0.0528479 7.68792 -0.52026
RightShoulder  -0.867775 -5.99977 28.1769
RightArm  16.2413 -12.2024 46.6878
RightForeArm  20.123 14.4284 5.5337
RightHand  0.135331 2.39348 1.81851
LeftUpLeg  14.184 6.32982 -8.52094
LeftLeg  10.9005 4.2848 -0.884417
LeftFoot  -20.004 0.397389 3.65408
LeftToes  3.13772e-010 -3.14513e-011 3.96022e-013
370
root  -29.7648 38.3102 -1.79929 72.5424 84.5913 75.6517
RightUpLeg  -23.0334 -6.23548 -3.65458
RightLeg  4.19315 2.15767 0.894994
RightFoot  -5.31194 -0.506575 8.56279
RightToes  -1.16417e-010 0 -3.6325e-017
Spine  4.09614 -1.54626 -6.5052
Spine1  8.56916 -2.2126 1.76247
HEad  -21.4636 2.34863 -3.39592
LeftShoulder1  -0.403267 4.62135 -29.9381
LeftArm  15.1789 -23.4239 -48.1586
LeftForeArm  23.8523 -16.0889 -7.88552
LeftHand  -0.049518 7.9819 -0.241355
RightShoulder  -0.840737 -5.92933 28.0634
RightArm  17.569 -11.1681 46.8666
RightForeArm  18.3079 15.1429 5.54366
RightHand  0.111017 2.91206 1.31789
LeftUpLeg  16.3357 6.93685 -7.70973
LeftLeg  11.5694 2.31294 -0.921796
LeftFoot  -21.309 0.387638 2.98699
LeftToes  3.13772e-010 -3.14513e-011 3.96022e-013
371
root  -28.2925 38.1432 -1.686 95.0254 85.3384 97.6815
RightUpLeg  -23.0349 -6.79914 -2.84097
RightLeg  7.82942 0.9154 0.971577
RightFoot  -4.06374 -0.249147 4.87675
RightToes  -1.16417e-010 0 -3.6325e-017
Spine  3.3685 -1.84986 -5.97773
Spine1  8.63546 -2.89651 3.14081
HEad  -21.4861 1.16931 -4.09479
LeftShoulder1  -0.380655 4.55317 -30.1321
LeftArm  7.87344 -22.3082 -48.2561
LeftForeArm  31.0213 -11.3916 -9.88548
LeftHand  -0.055587 8.16132 -0.451887
RightShoulder  -0.881725 -6.03136 28.2904
RightArm  18.4812 -10.5776 46.241
RightForeArm  16.7636 15.5468 5.56
RightHand  0.0598421 3.12823 0.657071
LeftUpLeg  18.0939 7.49898 -5.86305
LeftLeg  12.2401 -0.982788 -0.98602
LeftFoot  -21.7074 0.275489 1.57143
LeftToes  3.13772e-010 -3.14513e-011 3.96022e-013
372
root  -26.7845 38.1496 -1.61052 119.041 86.455 121.145
RightUpLeg  -23.8609 -6.92951 -1.04901
RightLeg  11.2311 -0.547768 0.960033
RightFoot  4.02027 0.31927 -2.49478
RightToes  -1.16417e-010 0 -3.6325e-017
Spine  2.67941 -1.87984 -2.83553
Spine1  8.52047 -2.98087 3.39013
HEad  -21.0887 0.462055 -3.76559
LeftShoulder1  -0.409614 4.62397 -30.3987
LeftArm  1.37779 -20.1438 -48.3577
LeftForeArm  36.9708 -7.08999 -10.5002
LeftHand  -0.0526581 8.97706 -0.101521
RightShoulder  -0.946802 -6.17642 28.8661
RightArm  17.8835 -10.4568 45.2371
RightForeArm  15.2841 15.5408 5.50242
RightHand  -0.041675 4.40447 -0.771876
LeftUpLeg  19.9002 7.58312 -3.17551
LeftLeg  12.3027 -3.57296 -0.980286
LeftFoot  -20.8354 0.0640797 -0.69558
LeftToes  3.13772e-010 -3.14513e-011 3.96022e-013
373
root  -25.2127 38.0149 -1.55362 155.296 88.0543 157.448
RightUpLeg  -24.2723 -6.44411 1.33907
RightLeg  16.0068 0.38876 0.421398
RightFoot  6.7914 0.52068 -2.99056
RightToes  -1.16417e-010 0 -3.6325e-017
Spine  2.24895 -1.52464 1.54439
Spine1  8.63505 -2.18835 2.22287
HEad  -20.9765 -0.188464 -4.19773
LeftShoulder1  -0.482198 4.79454 -31.2293
LeftArm  -0.780981 -16.8087 -47.8739
LeftForeArm  38.9942 -5.83042 -10.187
LeftHand  -0.0612928 9.63168 -0.228561
RightShoulder  -0.914299 -6.12121 28.3528
RightArm  15.7568 -8.82455 45.7567
RightForeArm  17.7627 13.2468 5.94673
RightHand  0.0621795 2.98097 0.620789
LeftUpLeg  20.6763 7.54728 -0.436912
LeftLeg  15.918 -4.73814 -1.17531
LeftFoot  -20.2112 -0.176843 -3.85979
LeftToes  3.13772e-010 -3.14513e-011 3.96022e-013
